<?xml version="1.0" encoding="UTF-8" standalone="no"?>
<!-- Created with Inkscape (http://www.inkscape.org/) -->

<svg
   version="1.1"
   id="svg1"
   width="1024"
   height="1024"
   viewBox="0 0 1024 1024"
   xmlns="http://www.w3.org/2000/svg"
   xmlns:svg="http://www.w3.org/2000/svg">
  <defs
     id="defs1">
    <linearGradient
       x1="711.79382"
       y1="401.54648"
       x2="169.87567"
       y2="767.07489"
       gradientUnits="userSpaceOnUse"
       gradientTransform="matrix(1.180203,0,0,1.180203,-200.7743,-394.03549)"
       spreadMethod="pad"
       id="linearGradient9">
      <stop
         style="stop-opacity:1;stop-color:#000000"
         offset="0"
         id="stop7" />
      <stop
         style="stop-opacity:0;stop-color:#000000"
         offset="0.874983"
         id="stop8" />
      <stop
         style="stop-opacity:0;stop-color:#000000"
         offset="1"
         id="stop9" />
    </linearGradient>
    <linearGradient
       x1="265.65308"
       y1="559.65637"
       x2="590.07141"
       y2="559.65637"
       gradientUnits="userSpaceOnUse"
       gradientTransform="matrix(1.180203,0,0,1.180203,-200.7743,-394.03549)"
       spreadMethod="pad"
       id="linearGradient13">
      <stop
         style="stop-opacity:1;stop-color:#4281a4"
         offset="0"
         id="stop12" />
      <stop
         style="stop-opacity:0;stop-color:#000000"
         offset="1"
         id="stop13" />
    </linearGradient>
  </defs>
  <g
     id="g1">
    <path
       id="path2"
       d="M -164.867,-73.758 H 913.285 V 971.855 H -164.867 Z"
       style="fill:none;stroke:#000000;stroke-width:5.66929;stroke-linecap:square;stroke-linejoin:miter;stroke-miterlimit:4;stroke-dasharray:11.3386, 5.66929;stroke-dashoffset:0;stroke-opacity:0.244575"
       transform="scale(1.3333333)" />
    <path
       id="path3"
       d="m 308.137,567.184 c -1.235,-0.039 -0.762,4.312 1.437,1.324 -0.613,-0.957 -1.09,-1.313 -1.437,-1.324 z"
       style="fill:#000000;fill-opacity:1;fill-rule:nonzero;stroke:none"
       transform="scale(1.3333333)" />
    <path
       id="path4"
       d="m 647.254,303.629 c -5.051,0 -5.129,0.066 -29.859,25.668 -13.637,14.117 -29.7,30.715 -35.692,36.879 L 570.809,377.379 555.02,361.75 c -13.473,-13.344 -16.325,-15.633 -19.469,-15.633 -8.02,0 -13.235,5.176 -13.235,13.141 0,3.371 2.457,6.293 20.95,24.887 14.097,14.179 22.105,21.367 24.488,21.984 1.949,0.504 4.766,0.683 6.258,0.398 1.539,-0.293 9.984,-8.007 19.468,-17.781 70.411,-72.535 65.739,-67.328 65.739,-73.305 0,-6.988 -4.883,-11.812 -11.965,-11.812 z"
       style="fill:#48a9a6;fill-opacity:1;fill-rule:nonzero;stroke:none"
       transform="scale(1.3333333)" />
    <path
       d="m 124.297,85.289 c -5.219,0 -11.016,4.5 -12.09,9.387 -1.051,4.789 1.387,8.871 10.195,17.066 6.957,6.481 338.672,337.356 337.364,336.516 -19.356,-12.442 -49.539,-28.281 -67.27,-35.301 -162.637,-64.398 -311.73,94.777 -391.582,73.105 -64.988,-17.636 -93.773,-8.113 -36.055,14.454 140.375,31.527 241.586,-83.02 353.024,-79.774 39.195,1.141 68,10.946 118.871,40.461 41.164,23.879 71.07,35.516 103.266,40.18 7.222,1.047 17.3,1.441 28.324,1.105 35.722,-1.082 64.23,-10.746 90.875,-30.804 11.988,-9.024 44.074,-41.02 45.433,-45.305 2.465,-7.766 -3.234,-15.352 -11.539,-15.352 -4.566,0 -5.367,0.657 -21.972,17.903 -9.477,9.847 -21.481,21.082 -26.672,24.968 -23.227,17.375 -49.703,24.821 -78.199,21.981 -24.473,-2.434 -49.391,-12.625 -71.411,-29.203 -9.195,-6.922 -48.293,-45.16 -163.754,-160.16 C 115.668,71.941 129.391,85.289 124.297,85.289 Z"
       transform="scale(1.3333333)"
       style="fill:url(#linearGradient9);stroke:none"
       opacity="1"
       id="path9" />
    <path
       d="m 460.539,447.957 c 1.305,0.84 -330.406,-330.039 -337.367,-336.516 -8.809,-8.199 -11.246,-12.281 -10.192,-17.066 1.071,-4.887 6.868,-9.387 12.086,-9.387 10.93,0 339.168,337.75 370.563,361.387"
       transform="scale(1.3333333)"
       style="fill:url(#linearGradient13);stroke:none"
       opacity="1"
       id="path13" />
    <path
       style="fill:#c1666b"
       d="m 38.622932,0.97655959 q -9.863252,0 -17.333933,-4.54100209 Q 13.818318,-8.1054446 9.66794,-16.455029 5.5175617,-24.804614 5.5175617,-36.328017 q 0,-11.621059 4.1992063,-19.970644 4.248034,-8.398412 11.621059,-12.890586 7.373025,-4.541002 16.796825,-4.541002 7.861305,0 14.25777,3.076162 6.396466,3.027335 10.546844,8.447241 4.199206,5.371078 5.419906,12.451135 H 56.933424 q -2.001947,-6.396466 -6.787089,-10.107392 -4.736314,-3.710927 -11.914027,-3.710927 -6.152325,0 -11.083951,3.124991 -4.882798,3.124991 -7.763649,9.228488 -2.832023,6.05467 -2.832023,14.843706 0,8.789036 2.832023,14.843706 2.880851,6.054669 7.861305,9.228488 4.980454,3.1249908 11.425747,3.1249908 8.642552,0 13.915974,-5.0781098 5.32225,-5.126938 5.517562,-13.867146 H 40.283083 v -9.179661 h 28.710852 v 8.349585 q 0,9.17966 -3.955066,15.917921 -3.906238,6.6894336 -10.742156,10.3515321 -6.835917,3.66209849 -15.673781,3.66209849 z M 78.182191,0 v -54.589681 h 10.40036 v 8.789036 h 0.585936 q 1.464839,-4.443346 5.224594,-6.982401 3.808582,-2.587883 8.593729,-2.587883 1.02538,0 2.34374,0.09766 1.36718,0.09766 2.19726,0.195312 v 10.253876 q -0.58594,-0.146484 -2.24609,-0.341796 -1.66015,-0.24414 -3.36913,-0.24414 -5.615218,0 -9.326145,3.466786 -3.662098,3.417959 -3.662098,8.789037 V 0 Z m 49.854929,1.2206995 q -5.2246,0 -9.4238,-1.90429122 -4.15038,-1.95311918 -6.59178,-5.66404568 -2.4414,-3.7109266 -2.4414,-9.0820046 0,-4.638658 1.80664,-7.617164 1.80663,-3.027335 4.83397,-4.736314 3.02733,-1.757808 6.73826,-2.636711 3.75975,-0.878904 7.61716,-1.318356 7.22654,-0.830075 10.49802,-1.416011 3.27147,-0.634764 3.27147,-3.515615 v -0.292968 q 0,-4.541002 -2.68553,-7.031229 -2.63672,-2.539055 -7.76365,-2.539055 -5.37108,0 -8.44724,2.343743 -3.07617,2.343743 -4.19921,5.126938 l -10.10739,-2.636711 q 1.85546,-4.882798 5.32225,-7.861304 3.46678,-2.978507 7.91013,-4.345691 4.49217,-1.367183 9.37497,-1.367183 3.27148,0 6.9824,0.781248 3.71093,0.781247 6.9824,2.832022 3.27148,2.001948 5.32225,5.761702 2.05078,3.759755 2.05078,9.66794 V 0 h -10.40036 v -7.4706809 h -0.53711 q -1.61132,3.2226467 -5.56639,5.9570135 -3.90624,2.7343669 -10.54684,2.7343669 z m 2.39257,-8.6425524 q 4.34569,0 7.47068,-1.7089793 3.12499,-1.7578068 4.78514,-4.5410018 1.70898,-2.783195 1.70898,-6.005842 v -6.982401 q -0.78125,0.781248 -3.36913,1.367184 -2.53905,0.537107 -5.37108,0.927731 -2.83202,0.390624 -4.49217,0.585936 -4.541,0.634764 -7.81248,2.490227 -3.22264,1.806635 -3.22264,6.005841 0,3.906239 2.88085,5.9081859 2.92968,1.9531192 7.42185,1.9531192 z m 55.62366,8.4960685 q -6.6406,0 -11.81637,-3.3691306 -5.12693,-3.3691306 -8.10544,-9.716768 -2.92968,-6.347637 -2.92968,-15.136674 0,-8.886692 2.97851,-15.185501 2.9785,-6.29881 8.10544,-9.619112 5.17577,-3.320303 11.76754,-3.320303 5.07811,0 8.2031,1.708979 3.125,1.660152 4.83397,3.955067 1.75781,2.246087 2.68554,3.906238 h 0.58594 V -72.75369 h 10.74216 V 0 h -10.44919 v -8.5448964 h -0.87891 q -0.97656,1.7578072 -2.78319,4.0038943 -1.75781,2.2460871 -4.8828,3.95506634 -3.12499,1.66015136 -8.05662,1.66015136 z m 2.34375,-9.1308323 q 6.83591,0 10.49801,-5.3222493 3.6621,-5.32225 3.6621,-13.867147 0,-8.496068 -3.61327,-13.671834 -3.61327,-5.224594 -10.54684,-5.224594 -4.73632,0 -7.91014,2.490227 -3.12499,2.490227 -4.73631,6.787089 -1.56249,4.248035 -1.56249,9.619112 0,5.419906 1.61132,9.765596 1.61132,4.34569 4.78514,6.884745 3.17382,2.5390553 7.81248,2.5390553 z m 58.99513,9.1796602 q -8.05662,0 -13.91598,-3.4667865 -5.85935,-3.4667866 -9.03317,-9.765596 -3.12499,-6.298809 -3.12499,-14.794878 0,-8.398412 3.07616,-14.794878 3.12499,-6.396465 8.78904,-9.960908 5.66404,-3.61327 13.28121,-3.61327 6.20115,0 11.76754,2.783195 5.61522,2.734367 9.082,8.789036 3.51562,6.005842 3.51562,15.869094 v 3.808582 h -38.72059 q 0.29297,7.910133 4.49217,12.109339 4.19921,4.1503782 10.88864,4.1503782 4.49218,0 7.71482,-1.9531192 3.27148,-1.953119 4.68749,-5.761702 l 10.10739,2.392571 q -1.95312,6.3964658 -7.91013,10.3027042 -5.95701,3.9062383 -14.69722,3.9062383 z M 232.1579,-32.031155 h 28.02726 q -0.58594,-6.445293 -4.05272,-10.400359 -3.41796,-3.955067 -9.61912,-3.955067 -6.44529,0 -10.20504,4.248035 -3.71093,4.199206 -4.15038,10.107391 z M 303.30887,0 H 279.6273 v -72.75369 h 24.36516 q 10.74215,0 18.40815,4.394518 7.66599,4.345691 11.76754,12.451135 4.10155,8.105445 4.10155,19.433536 0,11.376919 -4.15038,19.531192 -4.10155,8.1542727 -11.96285,12.5487908 Q 314.34399,0 303.30887,0 Z m -12.5488,-9.7655959 h 11.91403 q 12.35348,0 18.50581,-6.8847451 6.15232,-6.933573 6.15232,-19.82416 0,-12.841759 -6.1035,-19.677676 -6.05467,-6.835917 -17.96869,-6.835917 h -12.49997 z m 80.03998,10.8886394 q -8.05662,0 -13.91598,-3.4667865 -5.85935,-3.4667866 -9.03317,-9.765596 -3.12499,-6.298809 -3.12499,-14.794878 0,-8.398412 3.07616,-14.794878 3.12499,-6.396465 8.78904,-9.960908 5.66404,-3.61327 13.28121,-3.61327 6.20115,0 11.76754,2.783195 5.61522,2.734367 9.082,8.789036 3.51562,6.005842 3.51562,15.869094 v 3.808582 h -38.72059 q 0.29297,7.910133 4.49218,12.109339 4.1992,4.1503782 10.88863,4.1503782 4.49218,0 7.71483,-1.9531192 3.27147,-1.953119 4.68748,-5.761702 l 10.10739,2.392571 q -1.95312,6.3964658 -7.91013,10.3027042 -5.95701,3.9062383 -14.69722,3.9062383 z M 355.56572,-32.031155 h 28.02726 q -0.58594,-6.445293 -4.05272,-10.400359 -3.41796,-3.955067 -9.61911,-3.955067 -6.4453,0 -10.20505,4.248035 -3.71093,4.199206 -4.15038,10.107391 z m 66.21936,33.1541985 q -8.8867,0 -14.74605,-3.8085824 -5.81053,-3.8574104 -7.27537,-11.1327791 l 10.10739,-2.099603 q 2.19726,8.3495841 12.01168,8.3495841 5.2246,0 8.25193,-2.1484311 3.07616,-2.197259 3.07616,-5.224594 0,-5.175766 -7.66599,-6.884745 l -9.17966,-2.099603 q -15.03902,-3.369131 -15.03902,-15.087846 0,-4.882798 2.68554,-8.544896 2.73437,-3.662099 7.47068,-5.664046 4.78514,-2.050775 10.9863,-2.050775 8.83786,0 13.86714,3.808582 5.02929,3.759755 6.78709,9.814424 l -9.61911,2.099603 q -1.02539,-2.88085 -3.56444,-5.029281 -2.53906,-2.19726 -7.37303,-2.19726 -4.44334,0 -7.42185,2.001948 -2.97851,2.001947 -2.97851,5.078109 0,2.734367 1.95312,4.443347 2.00195,1.660151 6.49412,2.685539 l 8.78904,1.953119 q 14.89254,3.36913 14.89254,14.74605 0,4.980454 -2.88086,8.8378639 -2.83202,3.8085824 -7.91013,6.0058415 -5.07811,2.1484311 -11.71871,2.1484311 z m 53.52638,0 q -7.71482,0 -13.42769,-3.5156145 -5.71287,-3.5156145 -8.88669,-9.814424 -3.17382,-6.347637 -3.17382,-14.794878 0,-8.496068 3.17382,-14.843706 3.17382,-6.396465 8.88669,-9.912079 5.71287,-3.515615 13.42769,-3.515615 8.49607,0 14.6484,4.296862 6.20115,4.248034 8.2031,11.816371 l -10.20505,2.441399 q -1.12304,-4.248034 -4.39452,-6.835917 -3.22264,-2.636711 -8.2031,-2.636711 -4.93162,0 -8.2031,2.587883 -3.22265,2.587883 -4.83397,6.982401 -1.56249,4.34569 -1.56249,9.619112 0,5.224594 1.56249,9.570284 1.61132,4.296862 4.83397,6.884745 3.27148,2.5878833 8.2031,2.5878833 5.07811,0 8.39841,-2.6855393 3.32031,-2.734366 4.39452,-7.177713 l 10.15622,2.441399 q -2.00194,7.7148212 -8.2031,12.1093394 -6.20115,4.3945181 -14.79488,4.3945181 z m 54.50061,0 q -8.05661,0 -13.91597,-3.4667865 -5.85936,-3.4667866 -9.03318,-9.765596 -3.12499,-6.298809 -3.12499,-14.794878 0,-8.398412 3.07616,-14.794878 3.125,-6.396465 8.78904,-9.960908 5.66405,-3.61327 13.28121,-3.61327 6.20115,0 11.76754,2.783195 5.61522,2.734367 9.08201,8.789036 3.51561,6.005842 3.51561,15.869094 v 3.808582 h -38.72058 q 0.29296,7.910133 4.49217,12.109339 4.19921,4.1503782 10.88864,4.1503782 4.49217,0 7.71482,-1.9531192 3.27147,-1.953119 4.68749,-5.761702 l 10.10739,2.392571 q -1.95312,6.3964658 -7.91014,10.3027042 -5.95701,3.9062383 -14.69722,3.9062383 z M 514.57774,-32.031155 H 542.605 q -0.58593,-6.445293 -4.05272,-10.400359 -3.41796,-3.955067 -9.61911,-3.955067 -6.44529,0 -10.20505,4.248035 -3.71093,4.199206 -4.15038,10.107391 z m 57.48147,-0.292968 V 0 h -10.74215 v -54.589681 h 10.25387 l 0.0488,10.498015 q 2.53905,-5.761701 6.78709,-8.44724 4.29686,-2.734367 10.05856,-2.734367 8.34959,0 13.4277,5.273422 5.12694,5.224594 5.12694,15.331985 V 0 h -10.74216 v -33.34951 q 0,-5.908186 -3.07616,-9.228488 -3.07617,-3.320303 -8.44724,-3.320303 -5.46874,0 -9.08201,3.564443 -3.61327,3.515614 -3.61327,10.009735 z m 68.9537,-22.265558 v 8.740208 h -10.88864 v 31.103423 q 0,3.271475 1.36718,4.8339701 1.41601,1.5136674 4.58983,1.5136674 0.87891,0 2.19726,-0.1953119 1.36719,-0.1953119 2.34375,-0.3906239 l 1.90429,8.59372446 q -1.70898,0.58593576 -3.71093,0.83007566 -1.95312,0.29296788 -3.80858,0.29296788 -7.42185,0 -11.52341,-3.8085824 -4.10155,-3.8574104 -4.10155,-10.7909833 v -31.982327 h -7.95896 v -8.740208 h 7.95896 v -12.988243 h 10.74216 v 12.988243 z"
       id="text13"
       transform="matrix(1.3333333,0,0,1.3333333,79.963401,838.854)"
       aria-label="GradeDescent" />
  </g>
</svg>
